<?xml version="1.0" encoding="UTF-8"?>
<svg version="1.1" xmlns="http://www.w3.org/2000/svg" width="210" height="143">
<path d="M0 0 C69.3 0 138.6 0 210 0 C210 47.19 210 94.38 210 143 C140.7 143 71.4 143 0 143 C0 95.81 0 48.62 0 0 Z " fill="#141727" transform="translate(0,0)"/>
<path d="M0 0 C8.53184047 -0.5617048 15.81308562 3.19682987 22.3828125 8.41796875 C28.44912311 14.22215483 31.26663817 20.39784294 31.5703125 28.79296875 C31.06398758 40.14530645 25.53892836 47.10406868 17.4453125 54.60546875 C10.34520106 59.33887638 2.18493866 58.79533602 -5.9921875 58.23046875 C-8.94628771 57.62015985 -10.32666968 56.86241843 -12.9921875 55.23046875 C-13.97058594 54.66199219 -13.97058594 54.66199219 -14.96875 54.08203125 C-21.04626107 50.14416827 -24.76820857 45.12075984 -26.9921875 38.23046875 C-28.39275186 29.72333707 -28.13828958 20.83708892 -23.61328125 13.3125 C-18.80547626 7.13765649 -12.87242965 2.42341683 -5.1796875 0.54296875 C-3.45194805 0.37358253 -1.72452129 0.19950344 0 0 Z " fill="#FA794D" transform="translate(34.9921875,31.76953125)"/>
<path d="M0 0 C5.69295504 3.37629633 10.75756393 7.56712362 12.6875 14.12890625 C14.23318714 21.43094548 13.38775874 27.41980792 9.7578125 33.94140625 C5.63053947 39.88308433 0.12425134 44.25729993 -6.859375 46.26953125 C-14.17401395 47.37575751 -19.4699353 46.30980011 -25.62890625 42.1875 C-29.24751906 39.07587322 -31.61233615 35.44477236 -33.859375 31.26953125 C-34.42011719 30.30660156 -34.42011719 30.30660156 -34.9921875 29.32421875 C-36.97640788 24.62286776 -36.65724552 18.79252722 -35.13671875 13.984375 C-31.4812301 6.30340896 -26.70157867 1.4687566 -18.859375 -1.73046875 C-12.17756746 -3.95773793 -6.24919959 -3.09182427 0 0 Z " fill="#FB794A" transform="translate(120.859375,39.73046875)"/>
<path d="M0 0 C4.74936535 2.7445103 8.91481569 7.08897577 10.625 12.375 C11.19501433 19.21517193 10.4476628 24.92959146 5.99609375 30.36328125 C1.13829096 35.10331912 -3.58782266 37.13723264 -10.375 37.375 C-16.31918044 36.93234826 -20.22379226 34.714899 -24.375 30.375 C-28.63991533 24.54716538 -29.44017136 18.45078119 -28.375 11.375 C-25.99444196 6.52232401 -22.33299884 2.99614787 -18.375 -0.625 C-12.44146813 -2.60284396 -5.73646881 -2.63331235 0 0 Z " fill="#FC7745" transform="translate(179.375,43.625)"/>
<path d="M0 0 C-3 1 -3 1 -6 0 C-13.40581573 -0.71935471 -17.80527509 -0.00835141 -24 4 C-27.4375 4.75 -27.4375 4.75 -30 5 C-21.72595436 -4.56686527 -11.09304546 -4.84060166 0 0 Z " fill="#DC7258" transform="translate(122,40)"/>
<path d="M0 0 C0.99386719 0.00902344 1.98773438 0.01804688 3.01171875 0.02734375 C4.15060547 0.04474609 4.15060547 0.04474609 5.3125 0.0625 C5.3125 0.3925 5.3125 0.7225 5.3125 1.0625 C4.63703125 1.09988281 3.9615625 1.13726562 3.265625 1.17578125 C2.37359375 1.24152344 1.4815625 1.30726562 0.5625 1.375 C-0.31921875 1.43300781 -1.2009375 1.49101563 -2.109375 1.55078125 C-5.0687568 2.1381737 -6.50927564 2.99711159 -8.6875 5.0625 C-9.0175 6.0525 -9.3475 7.0425 -9.6875 8.0625 C-11.3375 8.3925 -12.9875 8.7225 -14.6875 9.0625 C-14.6875 9.7225 -14.6875 10.3825 -14.6875 11.0625 C-15.3475 11.0625 -16.0075 11.0625 -16.6875 11.0625 C-15.08878806 6.90584895 -12.07442539 3.8633925 -8.6875 1.0625 C-5.53819107 0.01273036 -3.29935544 -0.03881595 0 0 Z " fill="#D1694C" transform="translate(169.6875,41.9375)"/>
<path d="M0 0 C3.41135826 0.2526932 4.21937511 1.23504476 6.625 3.8125 C10.75911801 9.36092155 11.22827274 12.15181767 11 19 C10.67 19 10.34 19 10 19 C10 16.69 10 14.38 10 12 C9.34 12 8.68 12 8 12 C7.9175 11.21625 7.835 10.4325 7.75 9.625 C7.27193661 6.85250896 7.27193661 6.85250896 4.9375 5.6875 C4.298125 5.460625 3.65875 5.23375 3 5 C3 4.01 3 3.02 3 2 C2.01 2 1.02 2 0 2 C0 1.34 0 0.68 0 0 Z " fill="#CB6C51" transform="translate(179,45)"/>
<path d="M0 0 C3.30243195 0.56938482 4.91109409 1.36616211 7 4 C9.25077638 7.83465605 10.39391326 10.53564975 10 15 C6.66666667 10 3.33333333 5 0 0 Z " fill="#23121C" transform="translate(56,39)"/>
<path d="M0 0 C0.33 0 0.66 0 1 0 C2.27253436 3.64793184 3.32829194 7.1936543 4 11 C4.99 11.33 5.98 11.66 7 12 C6.67 12.99 6.34 13.98 6 15 C-0.43181245 7.6302149 -0.43181245 7.6302149 -0.375 3 C-0.25125 2.01 -0.1275 1.02 0 0 Z " fill="#E77C59" transform="translate(152,62)"/>
<path d="M0 0 C3.67230705 3.07999946 4.56802365 5.2482602 5 10 C1.32769295 6.92000054 0.43197635 4.7517398 0 0 Z " fill="#CE654D" transform="translate(128,46)"/>
<path d="M0 0 C-1 3 -1 3 -2.75 4.1875 C-5.29960574 5.10819096 -7.30923081 5.14948718 -10 5 C-2.5 0 -2.5 0 0 0 Z " fill="#EE7D59" transform="translate(124,79)"/>
<path d="M0 0 C2.15377564 2.62198774 3.40072174 4.64404172 4 8 C2.68 7.67 1.36 7.34 0 7 C0 4.69 0 2.38 0 0 Z " fill="#391C22" transform="translate(8,70)"/>
<path d="M0 0 C2.475 0.495 2.475 0.495 5 1 C5 1.66 5 2.32 5 3 C6.32 3.33 7.64 3.66 9 4 C8.01 4.33 7.02 4.66 6 5 C2.8125 3.125 2.8125 3.125 0 1 C0 0.67 0 0.34 0 0 Z " fill="#CE6B55" transform="translate(93,79)"/>
<path d="M0 0 C-1.04874998 2.62187494 -1.64931313 3.79371361 -4.125 5.25 C-4.74375 5.4975 -5.3625 5.745 -6 6 C-6 5.01 -6 4.02 -6 3 C-2.66666667 0 -2.66666667 0 0 0 Z " fill="#E97857" transform="translate(186,71)"/>
</svg>
